<?xml version="1.0" encoding="UTF-8"?>
<!DOCTYPE svg PUBLIC "-//W3C//DTD SVG 1.1//EN" "http://www.w3.org/Graphics/SVG/1.1/DTD/svg11.dtd">
<!-- Creator: CorelDRAW -->
<svg xmlns="http://www.w3.org/2000/svg" xml:space="preserve" width="111.125mm" height="122.414mm" version="1.1" style="shape-rendering:geometricPrecision; text-rendering:geometricPrecision; image-rendering:optimizeQuality; fill-rule:evenodd; clip-rule:evenodd"
viewBox="0 0 11112.5 12241.4"
 xmlns:xlink="http://www.w3.org/1999/xlink"
 xmlns:xodm="http://www.corel.com/coreldraw/odm/2003">
 <defs>
  <style type="text/css">
   <![CDATA[
    .fil4 {fill:black}
    .fil0 {fill:#173152}
    .fil1 {fill:#375D81}
    .fil3 {fill:#56CEE1}
    .fil7 {fill:#707070}
    .fil6 {fill:#7690A8}
    .fil5 {fill:gray}
    .fil2 {fill:white}
   ]]>
  </style>
 </defs>
 <g id="Camada_x0020_1">
  <metadata id="CorelCorpID_0Corel-Layer"/>
  <g id="_1928543604256">
   <path class="fil0" d="M8940.54 3493.38l-13.32 2976.64c-306.43,100.9 -703.67,321.55 -1013.56,465.06l-3964.08 1889.19c-195.97,91.31 -337.21,107.35 -453.64,288.74 -373.99,582.62 -1042.52,1484.46 -1482.73,2092.95l-0.87 -1450.44c-213.16,66.27 -1898.87,850.28 -1986.27,934.18l1681.46 931.17c56.79,35.02 91.88,66.87 153.21,94.36 179.49,80.44 539.63,-125.37 707.41,-214.14l1156.95 642.21c67.76,42.93 117.9,63.86 183.6,98.62 89.81,-60.14 114.09,-90.31 176.42,-176.36 55.45,-76.54 89.3,-109.85 155.11,-197.67 40.91,-54.6 42.86,-46.78 82.32,-94.06 49.66,-59.49 31.65,-49.8 73.5,-102.89l580.47 -724.81c39.46,-47.28 41.41,-39.46 82.32,-94.06l499.68 -629.21 5546.85 -2602.32 0 -4056.95 -1876.67 -1093.61 -2.77 877.73 -285.39 145.67z"/>
   <path class="fil1" d="M2977.24 7796.92c-95.44,497.67 -28.25,421.74 -297.11,536.22 -114.27,48.66 -144.86,75.81 -272.88,107.62l494.99 -2213.61c45.28,-113.66 495.22,-289.28 618.49,-308.82l691 1721.82 -475.94 221.85 -142.12 -344.88c-120,11.88 -197.52,64.26 -311.28,112.89 -57.59,24.61 -90.15,41.18 -143.89,66.28 -37.47,17.5 -33.6,10.41 -72.3,32.22l-88.96 68.41zm-1285.19 -733.11l70.29 1694.5 -477.53 199.05 -77.14 -1645.38c-127.07,2.97 -363.94,137.06 -496.08,189.56l-32.35 -350.51 1485.17 -646.42 25.38 350.79 -497.74 208.41zm6211.2 -3070l-541.71 1099.89c185.65,146.37 227.43,257.84 374.23,393.66 151.48,140.16 241.05,263.9 361.93,418.69l-520.11 220.78c-112.76,-86.53 -371.32,-450.7 -522.48,-578.85 -233.84,383.6 -99.12,421.8 -129.1,882.88l-470.07 195.49 -88.32 -1923.44c-145.45,-151.72 153.12,136.44 -60.19,-44.97l-1242.25 546.28 -2.45 132.04 68.7 1517.2c128.28,18.21 647.51,-270.7 832.22,-330.92 15.46,437.41 47.09,312.27 -287.5,467.18 -122.64,56.78 -205.84,90.42 -317.59,141.95 -222.69,102.69 -454.68,225.89 -691.3,299.13l-89.59 -2001.85 1.31 -1089.25c-182.5,42.52 -407.34,168.4 -564.24,247.15l-3445.65 1599.08c-200.01,101.06 -389.04,171.4 -576.22,270.44l33.2 4233.33c87.4,-83.9 1773.11,-867.91 1986.27,-934.18l0.87 1450.44c440.21,-608.49 1108.74,-1510.33 1482.73,-2092.95 116.43,-181.39 257.67,-197.43 453.64,-288.74l3964.08 -1889.19c309.89,-143.51 707.13,-364.16 1013.56,-465.06l13.32 -2976.64c-218.1,64.58 -912.01,356.78 -1037.29,500.43z"/>
   <path class="fil2" d="M5884.26 2886.71l247.65 -103.26 35.56 639.21c331.65,-2.77 200.28,-450.75 193.19,-758.49l252.88 -87.08 37 809.96c-147.4,132.4 -217.83,70.57 -280.01,104.23 -152.99,82.84 -441.94,452.21 -466.99,-140.29 -6.52,-154.22 -16.66,-303.91 -19.28,-464.28zm-370.4 394.66l17.36 388.12c8.55,5.46 20.9,2.91 24.76,13.76 28.02,78.56 64.75,-40.53 125.42,92.01 -30.58,81.31 6.24,40.14 -59.69,91.71 -2.55,2 -84.43,43.74 -93.41,47.83 -240.44,109.5 -208.39,12.21 -219.5,5.98 -66.06,-658.9 -5.36,-508.55 -171.98,-568.85 -4.71,-161.19 -29.82,-117.32 112.44,-163.18l-8.32 -257.85 253.18 -95.65 11.95 217.47 125.09 -38.95c54.42,317.82 -107.49,65.01 -117.3,267.6zm1644.8 -1076.02l61.77 105.83c99.48,-67.16 180.1,-149.15 357.16,-120.12 221.65,196.56 184.73,944.53 -352.78,908.42 -69.26,86.4 -124.37,134.33 -267.29,137.93l-47.34 -1083.33 244.23 -96.69 4.25 147.96zm1512.54 4.47c-21.64,272.56 -161.06,395.15 -384.61,475.47 -341.9,122.82 -360.38,-151.92 -337.23,-428.59 34.83,-416.16 734.38,-864.19 726.05,-142.78l-474.15 217.49 46.61 172.82c178.92,4.88 176.79,-51.11 200.17,-210.6l223.16 -83.81zm-3884.65 190.43l-4.64 2719.93 2234.84 -1016.3 23.07 306.71c127.19,-128.92 164.82,-382.18 323.65,-461.15 485.7,-241.47 1192.31,-488.46 1651.81,-738.59l0 -2851.11 -4228.73 2040.51z"/>
   <path class="fil3" d="M9015.28 359.74l0 2851.11c-459.5,250.13 -1166.11,497.12 -1651.81,738.59 -158.83,78.97 -196.46,332.23 -323.65,461.15l-23.07 -306.71 -2234.84 1016.3 4.64 -2719.93 4228.73 -2040.51zm-4436.3 3979.96l-1.31 1089.25 437.36 -188.06 47.7 95.37 2.45 -132.04 1242.25 -546.28c213.31,181.41 -85.26,-106.75 60.19,44.97 1.85,-142.5 -23.51,-46.31 84.47,-114.55l375.97 -145.1 37.85 758.25c6.93,-7.38 18.68,-27.94 21.82,-21.73l195.95 -346.28c65.31,-125.88 124.52,-240.84 193.74,-369.83 148.99,-277.63 124.67,-333.76 519.2,-474.89 94.78,-33.9 77.17,-14.83 106.63,5.03 125.28,-143.65 819.19,-435.85 1037.29,-500.43l285.39 -145.67 2.77 -877.73 7.13 -2469.44c-99.65,52.63 -184.33,74.32 -294.72,128.79l-869.62 435.66c-189.21,95 -376.8,170.57 -576.31,270.36 -886.94,443.57 -2113.28,998.12 -2916.2,1422.97l0 2081.38z"/>
   <path class="fil2" d="M6367.62 4702.91l88.32 1923.44 470.07 -195.49c29.98,-461.08 -104.74,-499.28 129.1,-882.88 151.16,128.15 409.72,492.32 522.48,578.85l520.11 -220.78c-120.88,-154.79 -210.45,-278.53 -361.93,-418.69 -146.8,-135.82 -188.58,-247.29 -374.23,-393.66l541.71 -1099.89c-29.46,-19.86 -11.85,-38.93 -106.63,-5.03 -394.53,141.13 -370.21,197.26 -519.2,474.89 -69.22,128.99 -128.43,243.95 -193.74,369.83l-195.95 346.28c-3.14,-6.21 -14.89,14.35 -21.82,21.73l-37.85 -758.25 -375.97 145.1c-107.98,68.24 -82.62,-27.95 -84.47,114.55z"/>
   <path class="fil2" d="M3198.31 6505.79l32.97 -79.31 47.82 86.43 203.21 682.25 -427.88 173.47 143.88 -862.84zm-132.11 1222.72c38.7,-21.81 34.83,-14.72 72.3,-32.22 53.74,-25.1 86.3,-41.67 143.89,-66.28 113.76,-48.63 191.28,-101.01 311.28,-112.89l142.12 344.88 475.94 -221.85 -691 -1721.82c-123.27,19.54 -573.21,195.16 -618.49,308.82l-494.99 2213.61c128.02,-31.81 158.61,-58.96 272.88,-107.62 268.86,-114.48 201.67,-38.55 297.11,-536.22l88.96 -68.41z"/>
   <path class="fil2" d="M2189.79 6855.4l-25.38 -350.79 -1485.17 646.42 32.35 350.51c132.14,-52.5 369.01,-186.59 496.08,-189.56l77.14 1645.38 477.53 -199.05 -70.29 -1694.5 497.74 -208.41z"/>
   <path class="fil2" d="M4577.67 5428.95l89.59 2001.85c236.62,-73.24 468.61,-196.44 691.3,-299.13 111.75,-51.53 194.95,-85.17 317.59,-141.95 334.59,-154.91 302.96,-29.77 287.5,-467.18 -184.71,60.22 -703.94,349.13 -832.22,330.92l-68.7 -1517.2 -47.7 -95.37 -437.36 188.06z"/>
   <path class="fil4" d="M7260.09 2952.93c-54.92,-74.56 -196.97,-481.25 105.83,-549.1 72.12,92.58 177.23,501.21 -105.83,549.1zm-39.66 -641.75l-67.18 66.11 5.41 -171.94 -4.25 -147.96 -244.23 96.69 47.34 1083.33c142.92,-3.6 198.03,-51.53 267.29,-137.93 537.51,36.11 574.43,-711.86 352.78,-908.42 -177.06,-29.03 -257.68,52.96 -357.16,120.12z"/>
   <path class="fil4" d="M5884.26 2886.71c2.62,160.37 12.76,310.06 19.28,464.28 25.05,592.5 314,223.13 466.99,140.29 62.18,-33.66 132.61,28.17 280.01,-104.23l-37 -809.96 -252.88 87.08c7.09,307.74 138.46,755.72 -193.19,758.49l-35.56 -639.21 -247.65 103.26z"/>
   <path class="fil4" d="M8252.88 2152.48l-58.55 -61.79c0.78,-13.8 10.41,-15.61 14.96,-23.81 45.71,-107.24 62.03,-136.99 197.49,-108.58 38.62,164.75 21.28,125.86 -153.9,194.18zm418.32 57.34l-223.16 83.81c-23.38,159.49 -21.25,215.48 -200.17,210.6l-46.61 -172.82 474.15 -217.49c8.33,-721.41 -691.22,-273.38 -726.05,142.78 -23.15,276.67 -4.67,551.41 337.23,428.59 223.55,-80.32 362.97,-202.91 384.61,-475.47z"/>
   <path class="fil4" d="M5513.86 3281.37c9.81,-202.59 171.72,50.22 117.3,-267.6l-125.09 38.95 -11.95 -217.47 -253.18 95.65 8.32 257.85c-142.26,45.86 -117.15,1.99 -112.44,163.18 166.62,60.3 105.92,-90.05 171.98,568.85 11.11,6.23 -20.94,103.52 219.5,-5.98 8.98,-4.09 90.86,-45.83 93.41,-47.83 65.93,-51.57 29.11,-10.4 59.69,-91.71 -60.67,-132.54 -97.4,-13.45 -125.42,-92.01 -3.86,-10.85 -16.21,-8.3 -24.76,-13.76l-17.36 -388.12z"/>
   <polygon class="fil1" points="3279.1,6512.91 3198.31,6505.79 3054.43,7368.63 3482.31,7195.16 "/>
   <path class="fil2" d="M7260.09 2952.93c283.06,-47.89 177.95,-456.52 105.83,-549.1 -302.8,67.85 -160.75,474.54 -105.83,549.1z"/>
   <path class="fil2" d="M8209.29 2066.88c0.3,143.31 -13.37,57.27 43.59,85.6 175.18,-68.32 192.52,-29.43 153.9,-194.18 -135.46,-28.41 -151.78,1.34 -197.49,108.58z"/>
   <polygon class="fil5" points="7220.43,2311.18 7158.66,2205.35 7153.25,2377.29 "/>
   <polygon class="fil6" points="3198.31,6505.79 3279.1,6512.91 3231.28,6426.48 "/>
   <path class="fil7" d="M8252.88 2152.48c-56.96,-28.33 -43.29,57.71 -43.59,-85.6 -4.55,8.2 -14.18,10.01 -14.96,23.81l58.55 61.79z"/>
  </g>
 </g>
</svg>
